# xmcd CD database file
# Copyright (C) 1995 Ti Kan
#
# Track frame offsets:
#	150
#	13138
#	28841
#	43700
#	55138
#	70643
#	84565
#	95717
#	108235
#	118069
#	126365
#	139527
#	149310
#	162459
#	173110
#	190342
#	200481
#	212199
#	222281
#	230487
#	238463
#	251525
#	261895
#	273560
#	285110
#	294840
#	308194
#	318463
#	328246
#	338946
#
# Disc length: 4656 seconds
#
# Revision: 1
# Processed by: cddbd v1.4PL0 Copyright (c) Steve Scherf et al.
# Submitted via: NotifyCDPlayer(CDDB) 1.60beta5_freedb
#
DISCID=d5122e1e
DTITLE=Waylon Jennings - The Journey: Six Strings Away Vol. 2
DYEAR=1900
DGENRE=
TTITLE0=Don't Play The Game
TTITLE1=The House Song
TTITLE2=Delia's Gone
TTITLE3=It's All Over Now
TTITLE4=The Thirty Third Of August
TTITLE5=I'm Gonna Leave (While I Still Love You)
TTITLE6=Grey Eyes You Know
TTITLE7=I May Never Pass This Way Again
TTITLE8=(I'd Be) A Legend In My time
TTITLE9=Lila
TTITLE10=Willie And Laura Mae Jones
TTITLE11=I Ain't The One (& Jessi Colter)
TTITLE12=Singer Of Sad Songs
TTITLE13=Let Me Stay Awhile
TTITLE14=Sunday Mornin' Comin' Down
TTITLE15=(I'd Be) A Legend In My time
TTITLE16=It's Sure Been Fun
TTITLE17=Where Love Has Died
TTITLE18=Yellow Haired Woman
TTITLE19=This Time Tomorrow (I'll Be Gone)
TTITLE20=Life Goes On
TTITLE21=People In Dallas Got Hair
TTITLE22=Six White Horses
TTITLE23=Pickin' White Gold
TTITLE24=Donna On My Mind
TTITLE25=Honky Tonk Woman
TTITLE26=Time Between Bottles Of Wine
TTITLE27=Ragged But Right
TTITLE28=If I Were A Carpenter
TTITLE29=Must You Throw Dirt In My Face
EXTD=
EXTT0=
EXTT1=
EXTT2=
EXTT3=
EXTT4=
EXTT5=
EXTT6=
EXTT7=
EXTT8=
EXTT9=
EXTT10=
EXTT11=
EXTT12=
EXTT13=
EXTT14=
EXTT15=
EXTT16=
EXTT17=
EXTT18=
EXTT19=
EXTT20=
EXTT21=
EXTT22=
EXTT23=
EXTT24=
EXTT25=
EXTT26=
EXTT27=
EXTT28=
EXTT29=
PLAYORDER=
